<?xml version="1.0" standalone="no"?><!DOCTYPE svg PUBLIC "-//W3C//DTD SVG 1.1//EN" "http://www.w3.org/Graphics/SVG/1.1/DTD/svg11.dtd"><svg t="1631793930349" class="icon" viewBox="0 0 1024 1024" version="1.1" xmlns="http://www.w3.org/2000/svg" p-id="5525" xmlns:xlink="http://www.w3.org/1999/xlink" width="32" height="32"><defs><style type="text/css"></style></defs><path d="M821.5 940.7h-619c-64.8 0-117.6-52.7-117.6-117.6V457.5c0-64.8 52.7-117.6 117.6-117.6h619.1c64.8 0 117.6 52.7 117.6 117.6v365.6c-0.1 64.9-52.8 117.6-117.7 117.6z m-619-526c-23.6 0-42.8 19.2-42.8 42.8v365.6c0 23.6 19.2 42.8 42.8 42.8h619.1c23.6 0 42.8-19.2 42.8-42.8V457.5c0-23.6-19.2-42.8-42.8-42.8H202.5z" fill="#000000" p-id="5526"></path><path d="M218.8 505.7V198.3c0-42.8 35.3-77.6 78.9-77.6h428.6c43.6 0 78.9 34.7 78.9 77.6v305.8L511.4 636.9 218.8 505.7z" fill="#000000" p-id="5527"></path><path d="M256.2 505.7h-74.8V198.3c0-63.4 52.2-115 116.3-115h428.6c64.1 0 116.3 51.6 116.3 115v305.8h-74.8V198.3c0-22.2-18.6-40.2-41.5-40.2H297.7c-22.9 0-41.5 18-41.5 40.2v307.4z" fill="#000000" p-id="5528"></path><path d="M515.3 681.4L119.6 503.3l30.7-68.2L515 599.3l358.5-164.1 31.1 68z" fill="#000000" p-id="5529"></path><path d="M393.7 355.5c0-35.3 21.9-70.6 63.6-70.6 27.7 0 44.2 19 51.2 29.4 1.8 2.7 5.8 2.7 7.6-0.1 6.5-10.5 22.4-29.3 51.5-29.3 40.3 0 62.9 34.6 62.9 70.6 0 48.2-77.8 104.7-107.1 124.3-6.6 4.4-15.2 4.4-21.8 0-29.5-19.7-107.9-76.6-107.9-124.3z" fill="#000000" p-id="5530"></path></svg>