<?xml version="1.0" standalone="no"?><!DOCTYPE svg PUBLIC "-//W3C//DTD SVG 1.1//EN" "http://www.w3.org/Graphics/SVG/1.1/DTD/svg11.dtd"><svg t="1632012426635" class="icon" viewBox="0 0 1024 1024" version="1.1" xmlns="http://www.w3.org/2000/svg" p-id="5932" xmlns:xlink="http://www.w3.org/1999/xlink" width="32" height="32"><defs><style type="text/css"></style></defs><path d="M832 736H352c-35.2 0-64-28.8-64-64V192c0-35.2 28.8-64 64-64h480c35.2 0 64 28.8 64 64v480c0 35.2-28.8 64-64 64z" fill="#000000" p-id="5933"></path><path d="M288 800c-35.2 0-64-28.8-64-64V288H192c-35.2 0-64 28.8-64 64v480c0 35.2 28.8 64 64 64h480c35.2 0 64-28.8 64-64v-32H288z" fill="#000000" p-id="5934"></path></svg>